<?xml version="1.0" encoding="utf-8"?>
<!-- Generator: Adobe Illustrator 24.3.0, SVG Export Plug-In . SVG Version: 6.00 Build 0)  -->
<svg version="1.1" id="Capa_1" xmlns="http://www.w3.org/2000/svg" xmlns:xlink="http://www.w3.org/1999/xlink" x="0px" y="0px"
	 viewBox="0 0 48 48" style="enable-background:new 0 0 48 48;" xml:space="preserve">
<style type="text/css">
	.st0{opacity:0.15;fill:#45413C;enable-background:new    ;}
	.st1{fill:#8CA4B8;}
	.st2{fill:#627B8C;}
	.st3{fill:none;}
	.st4{fill:#FFB0CA;stroke:#45413C;stroke-linecap:round;stroke-linejoin:round;stroke-miterlimit:10;}
	.st5{fill:none;stroke:#45413C;stroke-linecap:round;stroke-linejoin:round;stroke-miterlimit:10;}
	.st6{fill:#C0DCEB;}
	.st7{fill:#E8F4FA;}
</style>
<g id="Icons">
	<g id="XMLID_1136_">
		<ellipse id="XMLID_512_" class="st0" cx="24" cy="45.3" rx="13.5" ry="1.5"/>
		<g id="XMLID_492_">
			<g id="XMLID_493_">
				<path id="XMLID_497_" class="st1" d="M46.7,16.8c0-2.2-1.5-4-3.6-4.4c0-0.2,0.1-0.4,0.1-0.6c0-2.5-2-4.5-4.5-4.5
					c-0.9,0-1.8,0.3-2.5,0.8V7.8c0-2.5-2-4.5-4.5-4.5c-1.2,0-2.4,0.5-3.2,1.3c-0.5-1.9-2.3-3.3-4.3-3.3s-3.8,1.4-4.3,3.3
					c-0.8-0.8-1.9-1.3-3.2-1.3c-2.5,0-4.5,2-4.5,4.5v0.3c-0.7-0.5-1.6-0.8-2.5-0.8C7,7.3,5,9.3,5,11.8c0,0.2,0,0.4,0.1,0.6
					c-2,0.4-3.6,2.2-3.6,4.4c0,2.3,1.7,4.1,3.8,4.5c-0.2,0.5-0.3,1-0.3,1.6c0,2.5,2,4.5,4.5,4.5c0.9,0,1.8-0.3,2.5-0.8v0.3
					c0,2.5,2,4.5,4.5,4.5c1.4,0,2.6-0.6,3.4-1.6c0.7,1.5,2.3,2.6,4.1,2.6c1.8,0,3.4-1.1,4.1-2.6c0.8,1,2.1,1.6,3.4,1.6
					c2.5,0,4.5-2,4.5-4.5v-0.3c0.7,0.5,1.6,0.8,2.5,0.8c2.5,0,4.5-2,4.5-4.5c0-0.6-0.1-1.1-0.3-1.6C45,20.9,46.7,19.1,46.7,16.8z"/>
				<path id="XMLID_496_" class="st2" d="M43.5,15.7c0.2,0.5,0.4,1.2,0.4,2.5c-0.1,2.4-2.2,3.3-4.3,3.4c-1,0.1-1.9-0.3-2.7-0.8v0.3
					c0,2.7-2.2,4.8-4.8,4.8c-1.5,0-2.8-0.7-3.7-1.7C27.6,25.9,26,27,24,27s-3.6-1.2-4.4-2.8c-0.9,1-2.2,1.7-3.7,1.7
					c-2.7,0-4.8-2.2-4.8-4.8v-0.3c-0.8,0.5-1.7,0.6-2.7,0.6c-1.9,0-4-1.4-4.3-3.1C3.9,17.2,4,16.6,4.2,16c-1,0.1-2,0.5-2-1.7
					c-0.5,0.7-0.8,1.5-0.8,2.5c0,2.3,1.7,4.1,3.8,4.5c-0.2,0.5-0.3,1-0.3,1.6c0,2.5,2,4.5,4.5,4.5c0.9,0,1.8-0.3,2.5-0.8V27
					c0,2.5,2,4.5,4.5,4.5c1.4,0,2.6-0.6,3.4-1.6c0.7,1.5,2.3,2.6,4.1,2.6c1.8,0,3.4-1.1,4.1-2.6c0.8,1,2.1,1.6,3.4,1.6
					c2.5,0,4.5-2,4.5-4.5v-0.3c0.7,0.5,1.6,0.8,2.5,0.8c2.5,0,4.5-2,4.5-4.5c0-0.6-0.1-1.1-0.3-1.6c2.2-0.3,4.1-2.3,4.1-4.6
					c0-0.9-0.3-1.8-0.7-2.5C45.6,14.8,44.9,15.6,43.5,15.7z"/>
				<path id="XMLID_494_" class="st3" d="M46.7,16.8c0-2.2-1.5-4-3.6-4.4c0-0.2,0.1-0.4,0.1-0.6c0-2.5-2-4.5-4.5-4.5
					c-0.9,0-1.8,0.3-2.5,0.8V7.8c0-2.5-2-4.5-4.5-4.5c-1.2,0-2.4,0.5-3.2,1.3c-0.5-1.9-2.3-3.3-4.3-3.3s-3.8,1.4-4.3,3.3
					c-0.8-0.8-1.9-1.3-3.2-1.3c-2.5,0-4.5,2-4.5,4.5v0.3c-0.7-0.5-1.6-0.8-2.5-0.8C7,7.3,5,9.3,5,11.8c0,0.2,0,0.4,0.1,0.6
					c-2,0.4-3.6,2.2-3.6,4.4c0,2.3,1.7,4.1,3.8,4.5c-0.2,0.5-0.3,1-0.3,1.6c0,2.5,2,4.5,4.5,4.5c0.9,0,1.8-0.3,2.5-0.8v0.3
					c0,2.5,2,4.5,4.5,4.5c1.4,0,2.6-0.6,3.4-1.6c0.7,1.5,2.3,2.6,4.1,2.6c1.8,0,3.4-1.1,4.1-2.6c0.8,1,2.1,1.6,3.4,1.6
					c2.5,0,4.5-2,4.5-4.5v-0.3c0.7,0.5,1.6,0.8,2.5,0.8c2.5,0,4.5-2,4.5-4.5c0-0.6-0.1-1.1-0.3-1.6C45,20.9,46.7,19.1,46.7,16.8z"/>
			</g>
		</g>
		<ellipse id="XMLID_491_" class="st2" cx="16.9" cy="17.7" rx="1.3" ry="0.8"/>
		<g id="XMLID_489_">
			<path id="XMLID_490_" class="st4" d="M20.8,23.6c-0.3,0-0.5-0.1-0.7-0.3C20,23,19.9,22.8,20,22.5c0.2-0.9,0.8-1.7,1.5-2.3
				c0.7-0.6,1.6-0.9,2.6-0.9s1.9,0.3,2.6,0.9s1.3,1.4,1.5,2.3c0.1,0.3,0,0.5-0.2,0.7s-0.4,0.3-0.7,0.3c0,0-2-0.4-3.3-0.4
				C22.8,23.1,20.8,23.6,20.8,23.6z"/>
		</g>
		<path id="XMLID_488_" class="st5" d="M19.7,14.3c-0.4,1.1-1.6,1.7-2.7,1.3"/>
		<ellipse id="XMLID_487_" class="st2" cx="31.2" cy="17.7" rx="1.3" ry="0.8"/>
		<path id="XMLID_486_" class="st5" d="M28.4,14.3c0.4,1.1,1.6,1.7,2.7,1.3"/>
		<g id="XMLID_482_">
			<path id="XMLID_485_" class="st6" d="M31.8,44.2c0,0.9-0.7,1.6-1.6,1.6s-1.6-0.7-1.6-1.6c0-0.6,0.8-2.5,1.3-3.5
				c0.1-0.2,0.5-0.2,0.6,0C31,41.7,31.8,43.6,31.8,44.2z"/>
			<path id="XMLID_484_" class="st7" d="M30.2,44.7c-0.7,0-1.2-0.4-1.5-1c-0.1,0.2-0.1,0.4-0.1,0.5c0,0.9,0.7,1.6,1.6,1.6
				s1.6-0.7,1.6-1.6c0-0.1,0-0.3-0.1-0.5C31.5,44.3,30.9,44.7,30.2,44.7z"/>
		</g>
		<g id="XMLID_478_">
			<path id="XMLID_481_" class="st6" d="M36.8,37.3c0,0.9-0.7,1.6-1.6,1.6s-1.6-0.7-1.6-1.6c0-0.6,0.8-2.5,1.3-3.5
				c0.1-0.2,0.5-0.2,0.6,0C36,34.8,36.8,36.7,36.8,37.3z"/>
			<path id="XMLID_480_" class="st7" d="M35.2,37.9c-0.7,0-1.2-0.4-1.5-1c-0.1,0.2-0.1,0.4-0.1,0.5c0,0.9,0.7,1.6,1.6,1.6
				c0.9,0,1.6-0.7,1.6-1.6c0-0.1,0-0.3-0.1-0.5C36.5,37.4,35.9,37.9,35.2,37.9z"/>
		</g>
		<g id="XMLID_474_">
			<path id="XMLID_477_" class="st6" d="M16.2,44.2c0,0.9,0.7,1.6,1.6,1.6s1.6-0.7,1.6-1.6c0-0.6-0.8-2.5-1.3-3.5
				c-0.1-0.2-0.5-0.2-0.6,0C17,41.7,16.2,43.6,16.2,44.2z"/>
			<path id="XMLID_476_" class="st7" d="M17.8,44.7c0.7,0,1.2-0.4,1.5-1c0.1,0.2,0.1,0.4,0.1,0.5c0,0.9-0.7,1.6-1.6,1.6
				s-1.6-0.7-1.6-1.6c0-0.1,0-0.3,0.1-0.5C16.5,44.3,17.1,44.7,17.8,44.7z"/>
		</g>
		<g id="XMLID_470_">
			<path id="XMLID_473_" class="st6" d="M11.2,37.3c0,0.9,0.7,1.6,1.6,1.6c0.9,0,1.6-0.7,1.6-1.6c0-0.6-0.8-2.5-1.3-3.5
				c-0.1-0.2-0.5-0.2-0.6,0C12,34.8,11.2,36.7,11.2,37.3z"/>
			<path id="XMLID_472_" class="st7" d="M12.8,37.9c0.7,0,1.2-0.4,1.5-1c0.1,0.2,0.1,0.4,0.1,0.5c0,0.9-0.7,1.6-1.6,1.6
				c-0.9,0-1.6-0.7-1.6-1.6c0-0.1,0-0.3,0.1-0.5C11.5,37.4,12.1,37.9,12.8,37.9z"/>
		</g>
		<g id="XMLID_466_">
			<path id="XMLID_469_" class="st6" d="M25.6,40.8c0,0.9-0.7,1.6-1.6,1.6s-1.6-0.7-1.6-1.6c0-0.6,0.8-2.5,1.3-3.5
				c0.1-0.2,0.5-0.2,0.6,0C24.7,38.3,25.6,40.1,25.6,40.8z"/>
			<path id="XMLID_468_" class="st7" d="M24,41.3c-0.7,0-1.2-0.4-1.5-1c-0.1,0.2-0.1,0.4-0.1,0.5c0,0.9,0.7,1.6,1.6,1.6
				s1.6-0.7,1.6-1.6c0-0.1,0-0.3-0.1-0.5C25.2,40.9,24.7,41.3,24,41.3z"/>
		</g>
		<g id="XMLID_464_">
			<path id="XMLID_465_" class="st4" d="M20.8,23.6c-0.3,0-0.5-0.1-0.7-0.3C20,23,19.9,22.8,20,22.5c0.2-0.9,0.8-1.7,1.5-2.3
				c0.7-0.6,1.6-0.9,2.6-0.9s1.9,0.3,2.6,0.9s1.3,1.4,1.5,2.3c0.1,0.3,0,0.5-0.2,0.7s-0.4,0.3-0.7,0.3c0,0-2-0.4-3.3-0.4
				C22.8,23.1,20.8,23.6,20.8,23.6z"/>
		</g>
	</g>
</g>
</svg>
